<svg xmlns="http://www.w3.org/2000/svg" xmlns:svg="http://www.w3.org/2000/svg" xmlns:xlink="http://www.w3.org/1999/xlink" viewBox="40.53 0 129.47 34.43">
 <g class="layer">
  <title>Layer 1</title>
  <path d="m41.44,27.86l0,-8.68l4.02,0l0,8.68c0,0.85 0.26,1.53 0.77,2.07c0.52,0.53 1.18,0.79 1.98,0.79c0.8,0 1.46,-0.27 1.97,-0.79c0.52,-0.53 0.78,-1.22 0.78,-2.07l0,-8.68l4.02,0l0,8.68c0,1.92 -0.63,3.49 -1.89,4.71c-1.26,1.23 -2.89,1.84 -4.88,1.84c-1.99,0 -3.62,-0.62 -4.88,-1.84c-1.27,-1.22 -1.89,-2.79 -1.89,-4.71z" fill="#ffffff" id="svg_3"/>
  <path d="m57.9,34l0,-14.82l3.49,0l6.34,8.15l0,-8.15l4.03,0l0,14.82l-3.49,0l-6.35,-8.15l0,8.15l-4.02,0z" fill="#ffffff" id="svg_4"/>
  <path d="m74.77,34l0,-14.82l4.03,0l0,14.82l-4.03,0z" fill="#ffffff" id="svg_5"/>
  <path d="m85.42,34l-5.29,-14.82l4.34,0l3.13,10.38l0.08,0l3.13,-10.38l4.33,0l-5.28,14.82l-4.44,0z" fill="#ffffff" id="svg_6"/>
  <path d="m96.48,34l0,-14.82l11.32,0l0,3.6l-7.29,0l0,2.11l5.6,0l0,3.39l-5.6,0l0,2.12l7.51,0l0,3.6l-11.54,0z" fill="#ffffff" id="svg_7"/>
  <path d="m110.19,34l0,-14.82l6.99,0c1.57,0 2.86,0.49 3.87,1.46c1.02,0.97 1.53,2.18 1.53,3.62c0,1.35 -0.43,2.45 -1.28,3.3c-0.37,0.4 -0.79,0.7 -1.27,0.93l3.06,5.51l-4.23,0l-2.44,-4.66l-2.22,0l0,4.66l-4.01,0zm4.02,-8.26l2.75,0c0.46,0 0.85,-0.13 1.14,-0.42c0.3,-0.29 0.44,-0.64 0.44,-1.06c0,-0.43 -0.14,-0.78 -0.44,-1.06c-0.29,-0.29 -0.67,-0.43 -1.14,-0.43l-2.75,0l0,2.97z" fill="#ffffff" id="svg_8"/>
  <path d="m123.79,31.88l2.33,-2.54c0.26,0.3 0.54,0.57 0.87,0.81c0.74,0.52 1.51,0.78 2.3,0.78c0.61,0 1.08,-0.12 1.4,-0.37c0.34,-0.25 0.5,-0.54 0.5,-0.89c0,-0.32 -0.17,-0.58 -0.51,-0.81c-0.35,-0.23 -0.78,-0.43 -1.3,-0.58c-0.51,-0.14 -1.07,-0.35 -1.67,-0.6c-0.6,-0.25 -1.18,-0.53 -1.68,-0.86c-0.52,-0.31 -0.95,-0.77 -1.3,-1.37c-0.35,-0.6 -0.51,-1.31 -0.51,-2.12c0,-1.23 0.51,-2.29 1.54,-3.2c1.03,-0.9 2.38,-1.35 4.06,-1.35c1.49,0 2.8,0.35 3.93,1.06c0.53,0.34 0.94,0.69 1.25,1.06l-2.33,2.54c-0.19,-0.22 -0.42,-0.42 -0.66,-0.57c-0.52,-0.4 -1.11,-0.6 -1.78,-0.6c-0.55,0 -0.97,0.11 -1.25,0.31c-0.29,0.2 -0.44,0.45 -0.44,0.75c0,0.31 0.18,0.58 0.52,0.81c0.35,0.23 0.78,0.42 1.29,0.57c0.52,0.15 1.08,0.35 1.68,0.6c0.61,0.26 1.16,0.54 1.68,0.86c0.52,0.31 0.94,0.78 1.29,1.38c0.35,0.59 0.52,1.31 0.52,2.12c0,1.33 -0.53,2.45 -1.6,3.38c-1.06,0.92 -2.47,1.38 -4.22,1.38c-1.69,0 -3.18,-0.42 -4.47,-1.27c-0.54,-0.37 -1.03,-0.8 -1.44,-1.28z" fill="#ffffff" id="svg_9"/>
  <path d="m137.5,34l0,-14.82l4.03,0l0,14.82l-4.03,0z" fill="#ffffff" id="svg_10"/>
  <path d="m147.41,34l0,-11.22l-4.13,0l0,-3.6l12.27,0l0,3.6l-4.12,0l0,11.22l-4.02,0z" fill="#ffffff" id="svg_11"/>
  <path d="m160.69,34l0,-5.29l-5.29,-9.53l4.45,0l2.81,5.83l0.09,0l2.81,-5.83l4.44,0l-5.29,9.53l0,5.29l-4.02,0z" fill="#ffffff" id="svg_12"/>
  <path d="m40.53,13.13l2.33,-2.54c0.26,0.29 0.54,0.56 0.87,0.8c0.74,0.53 1.51,0.78 2.3,0.78c0.61,0 1.08,-0.12 1.4,-0.36c0.34,-0.25 0.5,-0.55 0.5,-0.9c0,-0.31 -0.17,-0.58 -0.51,-0.81c-0.35,-0.23 -0.78,-0.43 -1.3,-0.57c-0.51,-0.15 -1.08,-0.36 -1.68,-0.6c-0.59,-0.25 -1.17,-0.54 -1.67,-0.86c-0.52,-0.32 -0.95,-0.78 -1.3,-1.38c-0.35,-0.6 -0.51,-1.31 -0.51,-2.12c0,-1.23 0.51,-2.29 1.54,-3.2c1.03,-0.9 2.38,-1.35 4.06,-1.35c1.49,0 2.8,0.35 3.93,1.06c0.52,0.34 0.94,0.69 1.24,1.06l-2.32,2.54c-0.2,-0.22 -0.42,-0.42 -0.66,-0.57c-0.52,-0.4 -1.11,-0.59 -1.78,-0.59c-0.55,0 -0.97,0.1 -1.25,0.3c-0.29,0.2 -0.44,0.45 -0.44,0.75c0,0.31 0.18,0.58 0.52,0.81c0.35,0.23 0.78,0.43 1.29,0.57c0.52,0.15 1.08,0.35 1.68,0.6c0.61,0.26 1.16,0.54 1.68,0.86c0.52,0.32 0.94,0.78 1.29,1.38c0.35,0.6 0.52,1.31 0.52,2.12c0,1.33 -0.54,2.46 -1.6,3.38c-1.06,0.92 -2.47,1.38 -4.22,1.38c-1.69,0 -3.19,-0.42 -4.47,-1.27c-0.54,-0.37 -1.03,-0.79 -1.44,-1.27z" fill="#ffffff" id="svg_13"/>
  <path d="m57.62,15.24l0,-5.29l-5.29,-9.52l4.45,0l2.81,5.82l0.09,0l2.81,-5.82l4.44,0l-5.29,9.52l0,5.29l-4.02,0z" fill="#ffffff" id="svg_14"/>
  <path d="m68.06,15.24l0,-14.81l3.48,0l6.35,8.15l0,-8.15l4.02,0l0,14.81l-3.48,0l-6.35,-8.15l0,8.15l-4.02,0z" fill="#ffffff" id="svg_15"/>
  <path d="m84.93,15.24l0,-14.81l11.32,0l0,3.6l-7.3,0l0,2.11l5.61,0l0,3.39l-5.61,0l0,2.11l7.51,0l0,3.6l-11.53,0z" fill="#ffffff" id="svg_16"/>
  <path d="m98.64,15.24l0,-14.81l6.99,0c1.56,0 2.86,0.48 3.87,1.45c1.02,0.97 1.52,2.18 1.52,3.62c0,1.36 -0.42,2.46 -1.27,3.31c-0.37,0.39 -0.79,0.7 -1.27,0.93l3.06,5.5l-4.23,0l-2.44,-4.65l-2.22,0l0,4.65l-4.01,0zm4.02,-8.25l2.75,0c0.47,0 0.85,-0.14 1.15,-0.43c0.29,-0.28 0.44,-0.63 0.44,-1.06c0,-0.42 -0.15,-0.77 -0.44,-1.06c-0.3,-0.29 -0.67,-0.42 -1.15,-0.42l-2.75,0l0,2.97z" fill="#ffffff" id="svg_17"/>
  <path d="m121.03,9.95l0,-2.96l6.34,0l0,5.71c-0.43,0.54 -0.98,1.04 -1.65,1.48c-1.47,0.99 -3.1,1.48 -4.91,1.48c-2.35,0 -4.31,-0.76 -5.89,-2.28c-1.57,-1.51 -2.36,-3.36 -2.36,-5.55c0,-2.19 0.78,-4.05 2.36,-5.56c1.57,-1.51 3.53,-2.27 5.89,-2.27c1.78,0 3.37,0.48 4.76,1.44c0.62,0.43 1.16,0.91 1.59,1.42l-2.44,2.75c-0.32,-0.35 -0.68,-0.67 -1.07,-0.95c-0.92,-0.64 -1.87,-0.95 -2.84,-0.95c-1.15,0 -2.13,0.4 -2.93,1.2c-0.8,0.79 -1.19,1.77 -1.19,2.94c0,1.16 0.39,2.13 1.19,2.93c0.79,0.8 1.77,1.2 2.93,1.2c0.77,0 1.41,-0.14 1.95,-0.42c0.22,-0.11 0.46,-0.26 0.7,-0.43l0,-1.16l-2.43,0l0,-0.02z" fill="#ffffff" id="svg_18"/>
  <path d="m133.25,15.24l0,-5.29l-5.29,-9.52l4.45,0l2.81,5.82l0.09,0l2.81,-5.82l4.44,0l-5.29,9.52l0,5.29l-4.02,0z" fill="#ffffff" id="svg_19"/>
  <image height="0" id="svg_22" transform="matrix(1 0 0 1 0 0)" width="0" x="30" xlink:href="./images/logo.svg" y="27"/>
 </g>
</svg>